<?xml version="1.0" encoding="UTF-8" standalone="no"?>
<!-- Created with Inkscape (http://www.inkscape.org/) -->

<svg
   xmlns:dc="http://purl.org/dc/elements/1.1/"
   xmlns:cc="http://creativecommons.org/ns#"
   xmlns:rdf="http://www.w3.org/1999/02/22-rdf-syntax-ns#"
   xmlns:svg="http://www.w3.org/2000/svg"
   xmlns="http://www.w3.org/2000/svg"
   xmlns:xlink="http://www.w3.org/1999/xlink"
   xmlns:sodipodi="http://sodipodi.sourceforge.net/DTD/sodipodi-0.dtd"
   xmlns:inkscape="http://www.inkscape.org/namespaces/inkscape"
   width="210mm"
   height="297mm"
   viewBox="0 0 210 297"
   version="1.1"
   id="svg115"
   inkscape:version="0.92.5 (2060ec1f9f, 2020-04-08)"
   sodipodi:docname="maça.svg">
  <defs
     id="defs109">
    <linearGradient
       inkscape:collect="always"
       id="linearGradient1015">
      <stop
         style="stop-color:#000000;stop-opacity:1;"
         offset="0"
         id="stop1011" />
      <stop
         style="stop-color:#000000;stop-opacity:0;"
         offset="1"
         id="stop1013" />
    </linearGradient>
    <linearGradient
       inkscape:collect="always"
       id="linearGradient959">
      <stop
         style="stop-color:#ffffff;stop-opacity:1;"
         offset="0"
         id="stop955" />
      <stop
         style="stop-color:#ffffff;stop-opacity:0;"
         offset="1"
         id="stop957" />
    </linearGradient>
    <radialGradient
       inkscape:collect="always"
       xlink:href="#linearGradient959"
       id="radialGradient963"
       cx="-280.83633"
       cy="142.78571"
       fx="-280.83633"
       fy="142.78571"
       r="54.806545"
       gradientTransform="matrix(0.87875796,0,0,0.82113632,209.97682,-401.83245)"
       gradientUnits="userSpaceOnUse" />
    <radialGradient
       inkscape:collect="always"
       xlink:href="#linearGradient1015"
       id="radialGradient1017"
       cx="-247.19641"
       cy="154.125"
       fx="-247.19641"
       fy="154.125"
       r="89.202377"
       gradientTransform="matrix(1,0,0,0.2378927,4.4213436,120.88398)"
       gradientUnits="userSpaceOnUse" />
  </defs>
  <sodipodi:namedview
     id="base"
     pagecolor="#ffffff"
     bordercolor="#666666"
     borderopacity="1.0"
     inkscape:pageopacity="0.0"
     inkscape:pageshadow="2"
     inkscape:zoom="0.35"
     inkscape:cx="-125.71429"
     inkscape:cy="560"
     inkscape:document-units="mm"
     inkscape:current-layer="layer1"
     showgrid="false"
     showguides="true"
     inkscape:window-width="1920"
     inkscape:window-height="1011"
     inkscape:window-x="0"
     inkscape:window-y="0"
     inkscape:window-maximized="1" />
  <metadata
     id="metadata112">
    <rdf:RDF>
      <cc:Work
         rdf:about="">
        <dc:format>image/svg+xml</dc:format>
        <dc:type
           rdf:resource="http://purl.org/dc/dcmitype/StillImage" />
        <dc:title></dc:title>
      </cc:Work>
    </rdf:RDF>
  </metadata>
  <g
     inkscape:label="Camada 1"
     inkscape:groupmode="layer"
     id="layer1">
    <g
       id="g1048"
       transform="translate(361.34524,90.714286)">
      <path
         sodipodi:nodetypes="cccccc"
         inkscape:connector-curvature="0"
         id="path1037"
         d="m -265.79585,-11.349589 21.58248,-25.578622 c 8.30345,-10.166355 17.42568,-15.495371 27.54047,-14.960422 l 34.27707,11.758094 c -15.29959,11.727788 -17.97201,29.775015 -48.35476,33.9542488 z"
         style="fill:#008000;stroke:#000000;stroke-width:0.26458332px;stroke-linecap:butt;stroke-linejoin:miter;stroke-opacity:1" />
      <ellipse
         transform="matrix(1,0,-0.07124705,0.9974587,0,0)"
         ry="21.220594"
         rx="89.202377"
         cy="157.54918"
         cx="-242.77507"
         id="path1000"
         style="fill:url(#radialGradient1017);fill-opacity:1;stroke-width:0.37465367" />
      <g
         transform="translate(4.5357143,1.5119048)"
         id="g1009">
        <path
           style="fill:#333333;fill-opacity:0;stroke-width:0.26458332"
           id="path120"
           sodipodi:type="arc"
           sodipodi:cx="-275.54465"
           sodipodi:cy="82.6875"
           sodipodi:rx="1.1339285"
           sodipodi:ry="46.49107"
           sodipodi:start="0"
           sodipodi:end="6.2784031"
           d="m -274.41072,82.6875 a 1.1339285,46.49107 0 0 1 -1.13257,46.49104 1.1339285,46.49107 0 0 1 -1.13528,-46.379875 1.1339285,46.49107 0 0 1 1.12986,-46.601936 1.1339285,46.49107 0 0 1 1.13798,46.268442 l -1.13392,0.222329 z" />
        <g
           id="g967"
           transform="matrix(1.5067777,0,0,1.6246027,159.51299,-134.14067)">
          <path
             inkscape:connector-curvature="0"
             style="fill:#ea3333;fill-opacity:1;stroke-width:0.26458332"
             d="m -262.01562,77.835938 c -6.96355,0.688316 -13.37216,4.485958 -20.47657,4.146484 -6.04015,-0.261877 -11.85109,-3.093376 -17.95898,-2.166016 -6.87594,1.492576 -12.62021,5.880774 -17.86282,10.354622 -12.50218,11.153052 -19.40697,28.636722 -16.87053,45.314392 2.42992,16.41597 13.23385,31.15621 27.78419,38.98796 6.21695,3.51168 13.61682,5.31922 20.70552,3.95108 6.94822,-1.04239 13.98966,-0.44021 20.9479,0.16642 4.81964,0.31337 9.82808,-0.14426 14.23082,-2.28497 9.91793,-4.28738 18.2749,-11.80283 24.21419,-20.76998 8.65604,-13.53165 10.5674,-31.37186 4.15096,-46.20206 -6.18623,-14.829332 -19.23472,-26.815286 -34.81006,-31.051343 -1.32692,-0.30937 -2.69076,-0.480993 -4.05462,-0.446589 z"
             id="path128" />
          <path
             inkscape:connector-curvature="0"
             transform="matrix(-0.46506234,-0.88527794,0.95161537,-0.30729171,0,0)"
             style="fill:url(#radialGradient963);fill-opacity:1;stroke-width:0.22037795"
             d="m -37.539062,-329.57227 c -11.656304,-0.0129 -23.231108,4.5333 -31.800236,12.40405 -5.377045,4.63725 -10.177448,10.23676 -12.628997,16.99552 -5.633584,14.14047 -2.978683,31.29268 6.934491,42.89709 10.587824,12.87588 28.052096,19.57852 44.542985,17.30908 14.012653,-1.79195 27.3508304,-9.60861 35.0627684,-21.55134 2.5834019,-3.99309 4.2441228,-8.94273 3.0803944,-13.69697 -1.1485963,-4.96072 -3.3939078,-9.64625 -3.9743,-14.74362 -0.5003017,-3.70711 0.1548835,-7.43136 0.1104221,-11.14972 0.068074,-3.84923 -0.6079269,-7.86128 -2.88712829,-11.05594 -3.04280541,-4.50723 -7.60470251,-7.68571 -12.16500961,-10.50385 -7.919695,-4.62225 -17.111369,-7.007 -26.27539,-6.9043 z"
             id="ellipse945" />
        </g>
        <path
           style="fill:#000000;fill-opacity:1;stroke-width:0.26458332"
           id="path991"
           sodipodi:type="arc"
           sodipodi:cx="-263.07141"
           sodipodi:cy="9.3601198"
           sodipodi:rx="28.726192"
           sodipodi:ry="4.9136906"
           sodipodi:start="0"
           sodipodi:end="6.096571"
           sodipodi:open="true"
           d="m -234.34522,9.3601198 a 28.726192,4.9136906 0 0 1 -27.3865,4.9083442 28.726192,4.9136906 0 0 1 -29.94093,-4.4505267 28.726192,4.9136906 0 0 1 24.59381,-5.3234594 28.726192,4.9136906 0 0 1 32.23488,3.9539899" />
      </g>
      <path
         sodipodi:nodetypes="ccccc"
         inkscape:connector-curvature="0"
         id="path1027"
         d="m -259.29167,16.541658 c -3.68699,-18.2669829 -15.36532,-41.413211 -6.04763,-47.625005 v 0 c -10.05867,-6.784691 9.25451,-28.430565 24.94644,-39.309511 3.38693,27.540065 -22.60205,40.774758 -18.89881,86.934516 z"
         style="fill:#483737;stroke:#000000;stroke-width:0.26458332px;stroke-linecap:butt;stroke-linejoin:miter;stroke-opacity:1" />
    </g>
    <path
       style="fill:none;stroke:#000000;stroke-width:0.26458332px;stroke-linecap:butt;stroke-linejoin:miter;stroke-opacity:1"
       d="m -254,371.08333 -28.72618,-41.57739 32.50594,-38.55356 c 0.25198,1.25992 0.34964,2.56083 0.75595,3.77976 0.1127,0.33808 0.64327,0.41788 0.75596,0.75596 0.338,1.01399 -0.26922,2.70289 0,3.77976 0.19326,0.77305 0.56269,1.4948 0.75595,2.26785 0.0611,0.24446 -0.11269,0.53058 0,0.75596 0.31874,0.63747 1.19317,0.87443 1.5119,1.5119 0.22539,0.45076 -0.22538,1.06114 0,1.51191 0.15937,0.31873 0.64327,0.41788 0.75596,0.75595 0.0628,0.18845 -0.0779,3.70189 0,3.77976 0.17818,0.17818 0.57777,-0.17818 0.75595,0 0.17818,0.17818 -0.11269,0.53057 0,0.75595 0.17503,0.35007 2.5792,2.5792 3.02381,3.02381 1.00793,1.00794 2.01587,2.01588 3.02381,3.02381 0.25198,0.25199 0.50397,0.50397 0.75595,0.75595 0.25198,0.25199 0.59658,0.43722 0.75595,0.75596 0.11269,0.22538 -0.17818,0.57777 0,0.75595 0.26536,0.26535 3.2576,-0.26108 3.77976,0 0.90715,0.45357 1.36072,1.81428 2.26786,2.26786 0.22538,0.11269 0.75595,-0.25199 0.75595,0 0,0.25198 -0.75595,0.25198 -0.75595,0 0,-0.25199 0.75595,-0.25199 0.75595,0 0,0.25198 -0.53057,0.11269 -0.75595,0 -0.90714,-0.45358 -1.36071,-1.81429 -2.26786,-2.26786 -0.22538,-0.11269 -0.53057,0.11269 -0.75595,0 -0.27037,-0.13519 -2.81423,-2.70944 -3.02381,-3.02381 -1.66548,-0.38069 -0.39959,-1.55514 -0.75595,-2.26786 -0.15937,-0.31874 -0.50397,-0.50397 -0.75595,-0.75595 -1.70788,-1.70788 0.22538,0.45076 -1.51191,-3.02381 -0.31873,-0.63747 -1.11656,-0.91889 -1.5119,-1.5119 -0.31255,-0.46883 -0.44341,-1.04309 -0.75595,-1.51191 -1.15324,-1.72985 -0.59839,0.47269 -1.51191,-2.26786 -0.0797,-0.23905 0.13978,-0.54629 0,-0.75595 -0.39534,-0.59302 -1.11656,-0.91889 -1.5119,-1.5119 -0.13978,-0.20967 0.0611,-0.5115 0,-0.75596 -0.19327,-0.77305 -0.56269,-1.4948 -0.75596,-2.26785 -0.12223,-0.48892 0.22539,-1.06114 0,-1.51191 -0.15936,-0.31874 -0.59658,-0.43721 -0.75595,-0.75595 -0.20505,-0.41009 0.20685,-2.81696 0,-3.02381 -0.17818,-0.17818 -0.57777,0.17818 -0.75595,0 -0.17818,-0.17818 0,-0.50397 0,-0.75595 0,-0.25199 0,-0.50397 0,-0.75595"
       id="path1029"
       inkscape:connector-curvature="0" />
    <path
       style="fill:none;stroke:#000000;stroke-width:0.26458332px;stroke-linecap:butt;stroke-linejoin:miter;stroke-opacity:1"
       d="m -91.470236,347.6488 -17.386904,-38.55357 c -2.51862,-4.21819 2.11527,-3.47458 3.02381,-5.29166 0.11269,-0.22538 0,-0.50397 0,-0.75595 0.25198,-0.50397 0.4434,-1.04308 0.75595,-1.51191 0.19767,-0.29651 0.64326,-0.41788 0.75595,-0.75595 0.15937,-0.47811 -0.15937,-1.0338 0,-1.5119 0.1912,-0.57361 2.67643,-2.32905 3.02381,-3.02381 0.22538,-0.45077 -0.22538,-1.06115 0,-1.51191 0.15937,-0.31874 0.55828,-0.45944 0.75595,-0.75595 0.31255,-0.46882 0.44341,-1.04308 0.755956,-1.51191 0.197672,-0.2965 0.558279,-0.45944 0.755952,-0.75595 0.312548,-0.46882 0.443404,-1.04308 0.755952,-1.5119 0.197673,-0.29651 0.643262,-0.41788 0.755953,-0.75595 0.159368,-0.47811 -0.159369,-1.0338 0,-1.51191 0.11269,-0.33807 0.503968,-0.50397 0.755952,-0.75595 0.02266,-0.0227 2.871141,-2.71847 3.02381,-3.02381 0.225381,-0.45076 -0.35636,-1.15555 0,-1.51191 0.398422,-0.39842 1.043083,-0.4434 1.511904,-0.75595 0.688155,-0.45877 1.597828,-1.93284 2.267858,-2.26786 0.225381,-0.11269 0.53057,0.1127 0.755952,0 0.318737,-0.15936 0.437215,-0.59658 0.755952,-0.75595 0.225382,-0.11269 0.530571,0.11269 0.755953,0 0.318737,-0.15937 0.437215,-0.59658 0.755952,-0.75595 0.225382,-0.11269 0.530571,0.11269 0.755952,0 0.318738,-0.15937 0.503969,-0.50397 0.755953,-0.75595 0,-0.25199 -0.225382,-0.64326 0,-0.75596 0.450763,-0.22538 1.033798,0.15937 1.511905,0 0.345093,-0.11503 1.927408,-1.9274 2.267857,-2.26785 0.251984,-0.25199 0.503968,-1.00794 0.755952,-0.75595 0.251984,0.25198 -0.503968,0.50396 -0.755952,0.75595 3.303361,4.95504 3.023809,2.71863 3.023809,6.04762 0,0.25198 -0.11269,0.53057 0,0.75595 0.37194,0.74388 2.65187,2.27993 3.02381,3.02381 0.225381,0.45076 -0.225382,1.06114 0,1.5119 0.159369,0.31874 0.596583,0.43722 0.755952,0.75596 0.225382,0.45076 -0.225381,1.06114 0,1.5119 0.318738,0.63748 1.193167,0.87443 1.511905,1.51191 0.112691,0.22538 -0.17818,0.57777 0,0.75595 0.17818,0.17818 0.577773,-0.17818 0.755952,0 0.35636,0.35636 -0.225381,1.06114 0,1.5119 0.159369,0.31874 0.596584,0.43722 0.755953,0.75595 0.356359,0.71272 0.399593,1.55514 0.755952,2.26786 0.453571,0.90714 1.814286,1.36072 2.267857,2.26786 0.112691,0.22538 -0.112691,0.53057 0,0.75595 0.453572,0.90714 1.814286,1.36072 2.267857,2.26786 0.112691,0.22538 -0.11269,0.53057 0,0.75595 0.318738,0.63748 1.193168,0.87443 1.511905,1.51191 0.112691,0.22538 -0.06112,0.51149 0,0.75595 0.193263,0.77305 0.399593,1.55514 0.755952,2.26786 0.318738,0.63747 1.193168,0.87442 1.511905,1.5119 0.112691,0.22538 0,0.50397 0,0.75595 0,0.25199 0,0.50397 0,0.75595 0,1.25993 0,2.51985 0,3.77977 0,1.5119 0,3.02381 0,4.53571 0,0.17964 0.08472,2.85438 0,3.02381 -0.159369,0.31874 -0.643261,0.41788 -0.755952,0.75595 -0.159369,0.47811 0,1.00794 0,1.51191 0,0.25198 0.112691,0.53057 0,0.75595 -0.159369,0.31874 -0.596584,0.43721 -0.755953,0.75595 -0.11269,0.22538 0,0.50397 0,0.75595 0,0.50397 0.159369,1.0338 0,1.51191 -0.11269,0.33807 -0.596583,0.43721 -0.755952,0.75595 -0.112691,0.22538 0.112691,0.53057 0,0.75595 -0.318737,0.63748 -1.193167,0.87443 -1.511905,1.51191 -0.11269,0.22538 0.112691,0.53057 0,0.75595 -0.159368,0.31874 -0.596583,0.43722 -0.755952,0.75595 -0.112691,0.22539 0,0.50397 0,0.75596 -0.251984,0.50396 -0.443405,1.04308 -0.755952,1.5119 -0.197673,0.29651 -0.596584,0.43722 -0.755953,0.75595 -0.112691,0.22538 0.139776,0.54629 0,0.75596 -0.395345,0.59301 -1.084273,0.94173 -1.511905,1.5119 -0.338072,0.45076 -0.443404,1.04308 -0.755952,1.51191 -0.207044,0.31056 -1.957291,2.06081 -2.267857,2.26785 -0.468822,0.31255 -1.043083,0.44341 -1.511905,0.75595 -0.296509,0.19768 -0.437215,0.59659 -0.755952,0.75596 -0.450763,0.22538 -1.033799,-0.15937 -1.511905,0 -0.534539,0.17818 -1.007937,0.50397 -1.511905,0.75595 -0.503968,0.25198 -1.061142,0.41788 -1.511905,0.75595 -0.570175,0.42763 -1.007936,1.00794 -1.511904,1.51191 -0.251984,0.25198 -0.437215,0.59658 -0.755953,0.75595 -0.450763,0.22538 -1.061142,-0.22538 -1.511904,0 -0.318738,0.15937 -0.437215,0.59658 -0.755953,0.75595 -0.225381,0.11269 -0.530571,-0.11269 -0.755952,0 -1.868264,0.93413 0.260938,0.75595 -1.511905,0.75595"
       id="path1031"
       inkscape:connector-curvature="0" />
  </g>
</svg>
